<svg width="19" height="19" viewBox="0 0 19 19" fill="none" xmlns="http://www.w3.org/2000/svg">
<path d="M7.63672 2.21973C8.75554 1.43687 10.2445 1.43687 11.3633 2.21973L15.9375 5.42188C17.0734 6.21719 17.75 7.51663 17.75 8.90332V14.4004C17.7498 16.4713 16.0709 18.1504 14 18.1504H13.75C13.0598 18.1504 12.5002 17.5906 12.5 16.9004V15.4111C12.4999 13.8924 11.2687 12.6611 9.75 12.6611H9.58887C8.07014 12.6611 6.83895 13.8924 6.83887 15.4111V16.9004C6.83866 17.5905 6.27895 18.1502 5.58887 18.1504H5C2.92906 18.1504 1.25021 16.4713 1.25 14.4004V8.90332L1.25781 8.64453C1.33104 7.44182 1.91212 6.32583 2.85547 5.57617L3.0625 5.42188L7.63672 2.21973Z" stroke="#8181A0" stroke-width="1.5"/>
</svg>
